HIERARCHY
ROOT ui
{
	 OFFSET 0 0 0
	 CHANNELS 3 XPosition YPosition Z Position
	 EndSite
	 {
	 OFFSET 0 -1 0
	 }
}
ROOT li
{
	 OFFSET 0 0 0
	 CHANNELS 3 XPosition YPosition Z Position
	 EndSite
	 {
	 OFFSET 0 -1 0
	 }
}
ROOT ul
{
	 OFFSET 0 0 0
	 CHANNELS 3 XPosition YPosition Z Position
	 EndSite
	 {
	 OFFSET 0 -1 0
	 }
}
ROOT ll
{
	 OFFSET 0 0 0
	 CHANNELS 3 XPosition YPosition Z Position
	 EndSite
	 {
	 OFFSET 0 -1 0
	 }
}
ROOT tt
{
	 OFFSET 0 0 0
	 CHANNELS 3 XPosition YPosition Z Position
	 EndSite
	 {
	 OFFSET 0 -1 0
	 }
}
ROOT tb
{
	 OFFSET 0 0 0
	 CHANNELS 3 XPosition YPosition Z Position
	 EndSite
	 {
	 OFFSET 0 -1 0
	 }
}
ROOT td
{
	 OFFSET 0 0 0
	 CHANNELS 3 XPosition YPosition Z Position
	 EndSite
	 {
	 OFFSET 0 -1 0
	 }
}
ROOT v
{
	 OFFSET 0 0 0
	 CHANNELS 3 XPosition YPosition Z Position
	 EndSite
	 {
	 OFFSET 0 -1 0
	 }
}
ROOT bn
{
	 OFFSET 0 0 0
	 CHANNELS 3 XPosition YPosition Z Position
	 EndSite
	 {
	 OFFSET 0 -1 0
	 }
}
MOTION
Frames: 29
Frame Time: 0.002
0.0018073099851608277	6.15962028503418E-4	0		0.5073314819335938	-2.391526123046875	0		-1.0136475219726562	-0.01674795150756836	0		-0.7446728515625	-2.265759521484375	0		1.465716552734375	-0.4778847045898437	0		3.040462890625	-0.10318191528320313	0		4.49601318359375	0.0885637435913086	0		5.58014501953125	0.08673181915283203	0		-0.062318225860595704	5.92362353515625	0		
-0.023723182678222657	0.0011777820587158202	0		0.44366500854492186	-2.379157470703125	0		-1.0131768798828125	-0.016915035247802735	0		-0.6717021484375	-2.27408056640625	0		1.4663162841796875	-0.4773569641113281	0		3.039179931640625	-0.08918061828613282	0		4.48545556640625	0.09012863159179688	0		5.585431640625	0.07932839202880859	0		-0.07771537017822265	5.9119638671875	0		
-3.3566299080848693E-4	-0.0030942840576171876	0		0.49871044921875	-2.38481689453125	0		-1.0127136840820312	-0.01708345031738281	0		-0.74450048828125	-2.267908447265625	0		1.4638438720703124	-0.4807669677734375	0		3.061526123046875	-0.09656144714355469	0		4.49688623046875	0.09134414672851562	0		5.58101904296875	0.0901253433227539	0		-0.21327774047851564	5.89331689453125	0		
-0.029943370819091798	-0.005476198196411133	0		0.443867919921875	-2.381627685546875	0		-1.0163209228515624	-0.02018352127075195	0		-0.6695096435546875	-2.27422021484375	0		1.458302978515625	-0.48712734985351563	0		3.04012548828125	-0.08720404052734375	0		4.4924296875	0.1008299560546875	0		5.58628076171875	0.08275737762451171	0		-0.2486156005859375	5.8879404296875	0		
0.0035723490715026856	0.0011006710529327393	0		0.484838134765625	-2.38802978515625	0		-1.0059441528320312	-0.022508657455444336	0		-0.7372953491210937	-2.263166748046875	0		1.42397900390625	-0.47802883911132815	0		3.0454404296875	-0.09330941009521485	0		4.48667724609375	0.09431072998046874	0		5.586662109375	0.08444651031494141	0		-0.23273472595214845	5.89571533203125	0		
-0.022059036254882813	0.0016377309560775756	0		0.48993438720703125	-2.382841064453125	0		-0.9933983154296875	-0.011855075836181641	0		-0.656306640625	-2.263524169921875	0		1.4685172119140626	-0.47522238159179686	0		3.0491181640625	-0.07440799713134766	0		4.4942236328125	0.10854201507568359	0		5.6011142578125	0.09286681365966797	0		-0.1999016876220703	5.90022900390625	0		
0.004259291172027588	0.0013425860404968262	0		0.5028656921386718	-2.383781494140625	0		-1.0111651611328125	-0.01771392059326172	0		-0.7333641967773438	-2.26135302734375	0		1.45488720703125	-0.479496826171875	0		3.0372099609375	-0.08929690551757813	0		4.516419921875	0.10349790954589844	0		5.5924443359375	0.09659957885742188	0		-0.08392567443847657	5.91245654296875	0		
-0.02450755500793457	-0.0010920130014419555	0		0.5037418823242188	-2.3835390625	0		-1.01088427734375	-0.017852493286132812	0		-0.6616353759765625	-2.269517822265625	0		1.46019091796875	-0.4850914001464844	0		3.019711669921875	-0.07514021301269531	0		4.516669921875	0.1047502212524414	0		5.597556640625	0.08904646301269531	0		-0.08513702392578125	5.91255078125	0		
0.0017057859897613525	-0.0023817400932312012	0		0.48542291259765624	-2.39101708984375	0		-1.0146939086914062	-0.020921161651611328	0		-0.7337775268554687	-2.263454345703125	0		1.4556298828125	-0.47855572509765626	0		3.037760986328125	-0.08757981109619141	0		4.51687646484375	0.10594046020507812	0		5.587767578125	0.09064697265625	0		-0.21965228271484374	5.89166796875	0		
0.0018952809572219849	-0.0022751510143280028	0		0.4871784973144531	-2.388817138671875	0		-1.0045313110351564	-0.02319242286682129	0		-0.6920550537109375	-2.262127685546875	0		1.4608358154296874	-0.48419699096679686	0		3.0271806640625	-0.07262831115722657	0		4.49405908203125	0.10840534973144532	0		5.58793603515625	0.09200765991210938	0		-0.25485714721679686	5.88723486328125	0		
0.0051050190925598146	0.001780676007270813	0		0.45402435302734373	-2.37511376953125	0		-1.0103013916015624	-0.018214141845703125	0		-0.724324462890625	-2.25468505859375	0		1.4641314697265626	-0.4808359680175781	0		3.02621337890625	-0.08087931823730468	0		4.49748193359375	0.12939878845214844	0		5.593169921875	0.10020169830322266	0		-0.20670663452148438	5.9025556640625	0		
0.005220204830169678	0.0018754659891128541	0		0.5064916076660156	-2.38268994140625	0		-1.0101823120117188	-0.018315736770629882	0		-0.651897216796875	-2.26378076171875	0		1.456384521484375	-0.4773426208496094	0		3.053443603515625	-0.07359480285644532	0		4.512380859375	0.11714501953125	0		5.60229443359375	0.10324576568603516	0		-0.20773269653320312	5.902609375	0		
0.00224570107460022	-0.0019930440187454226	0		0.48003048706054685	-2.3801240234375	0		-1.0141387329101563	-0.021350692749023438	0		-0.688364013671875	-2.26027685546875	0		1.453495361328125	-0.48095278930664065	0		3.042440185546875	-0.07980512237548829	0		4.50755908203125	0.12610639190673828	0		5.5982294921875	0.09538850402832032	0		-0.09053960418701172	5.9129580078125	0		
0.0022983429431915284	-0.0019132089614868164	0		0.5053973388671875	-2.38532177734375	0		-1.0140828857421875	-0.021436676025390625	0		-0.6879429321289062	-2.260309814453125	0		1.4536260986328124	-0.4806361694335938	0		3.033534912109375	-0.07710128784179687	0		4.51247607421875	0.118850830078125	0		5.588267578125	0.09652375030517578	0		-0.22476609802246095	5.89191943359375	0		
0.002320854902267456	-0.001841230034828186	0		0.4726510314941406	-2.393708740234375	0		-1.004086669921875	-0.023656747817993165	0		-0.72251025390625	-2.25484765625	0		1.458634765625	-0.4864180603027344	0		3.027371826171875	-0.09049214935302734	0		4.483384765625	0.11300363159179687	0		5.588275390625	0.09742719268798829	0		-0.24357679748535158	5.8952109375	0		
0.010298501014709473	-0.0028886430263519287	0		0.52107421875	-2.386251953125	0		-0.9919389038085937	-0.012897404670715332	0		-0.7151158447265625	-2.24797998046875	0		1.461748291015625	-0.48219900512695313	0		3.057708251953125	-0.06643965148925782	0		4.523720703125	0.1391134033203125	0		5.6023505859375	0.1050513687133789	0		-0.2103022003173828	5.9007666015625	0		
-0.02066765594482422	0.00259773588180542	0		0.48141607666015623	-2.379578125	0		-1.0100573120117187	-0.018713220596313477	0		-0.64805029296875	-2.260937255859375	0		1.4507423095703125	-0.4838100891113281	0		3.00055859375	-0.07421707153320313	0		4.50751416015625	0.12894926452636718	0		5.5982021484375	0.0988535385131836	0		-0.09388460540771484	5.9131767578125	0		
0.0022048919200897215	-0.0016697269678115844	0		0.51543115234375	-2.392939453125	0		-1.0141660766601563	-0.021721120834350585	0		-0.6848359375	-2.2584521484375	0		1.4476856689453126	-0.4865557861328125	0		3.03347998046875	-0.07528330993652343	0		4.5123193359375	0.12143697357177734	0		5.59812109375	0.09953142547607421	0		-0.2279208984375	5.8920439453125	0		
-0.023879522323608397	-2.7077800035476684E-4	0		0.47972860717773436	-2.3813525390625	0		-1.0142644653320312	-0.021780284881591797	0		-0.6477361450195313	-2.2609814453125	0		1.44458056640625	-0.49032177734375	0		3.00529443359375	-0.08154620361328126	0		4.48431787109375	0.13032400512695314	0		5.59801025390625	0.10014884948730468	0		-0.10947196960449218	5.90244287109375	0		
0.00197671902179718	-0.0015846929550170899	0		0.490740966796875	-2.387416015625	0		-1.00845849609375	-0.026915748596191405	0		-0.7165247192382812	-2.2510693359375	0		1.4096234130859375	-0.4806741027832031	0		3.023294189453125	-0.07246983337402343	0		4.5021357421875	0.12753964233398438	0		5.5878740234375	0.10084707641601562	0		-0.24724690246582032	5.8963271484375	0		
0.004880744934082032	0.0024112999439239503	0		0.4658644714355469	-2.382001953125	0		-1.0104981079101563	-0.018939077377319338	0		-0.6384893798828125	-2.252142578125	0		1.4504842529296875	-0.48306842041015624	0		3.005031494140625	-0.08093262481689453	0		4.4970830078125	0.13602667236328125	0		5.59771484375	0.10122576141357421	0		-0.24789944458007812	5.8963427734375	0		
0.0016624490022659302	-0.0015136419534683228	0		0.4819244079589844	-2.3791455078125	0		-1.0147012329101563	-0.021930099487304688	0		-0.714431396484375	-2.248142578125	0		1.44139794921875	-0.4798008117675781	0		3.0329638671875	-0.07403843688964844	0		4.49201513671875	0.1444784698486328	0		5.59266259765625	0.11076350402832032	0		-0.21544793701171874	5.901916015625	0		
0.004541337966918945	0.0024792749881744386	0		0.5068535766601563	-2.38440966796875	0		-1.014873779296875	-0.021970415115356447	0		-0.6415159301757812	-2.25413134765625	0		1.4332857666015626	-0.47755740356445314	0		3.008783935546875	-0.07446700286865235	0		4.49183056640625	0.14483622741699217	0		5.60147998046875	0.11108116912841796	0		-0.09788629913330078	5.91336328125	0		
-0.002728826999664307	-0.004394320964813232	0		0.4897720947265625	-2.3891171875	0		-1.0191029052734375	-0.025952863693237304	0		-0.7165086059570313	-2.25114990234375	0		1.4350076904296876	-0.48745318603515625	0		3.0115576171875	-0.07827005004882813	0		4.488365234375	0.12421427917480468	0		5.58717626953125	0.10267867279052735	0		-0.09846405792236328	5.9133896484375	0		
0.0011335599422454834	-0.00141347599029541	0		0.46480157470703126	-2.384723388671875	0		-1.0092922973632812	-0.027115188598632812	0		-0.7124771728515625	-2.246214599609375	0		1.4028643798828124	-0.48690692138671876	0		3.010267333984375	-0.08703095245361328	0		4.4733525390625	0.13772952270507813	0		5.58699267578125	0.10306736755371093	0		-0.2502667541503906	5.89540673828125	0		
0.004014445781707764	0.0025834009647369384	0		0.46986325073242186	-2.377725341796875	0		-1.005423095703125	-0.024191390991210936	0		-0.7054238891601563	-2.239312744140625	0		1.4088131103515624	-0.47986627197265624	0		3.036347900390625	-0.06815788269042969	0		4.492341796875	0.15078179931640626	0		5.60090576171875	0.11025187683105468	0		-0.2507885437011719	5.89542822265625	0		
0.003852994918823242	0.002624290943145752	0		0.517673095703125	-2.390283935546875	0		-1.0155560913085937	-0.022076143264770507	0		-0.71052587890625	-2.24424560546875	0		1.38277197265625	-0.4724088439941406	0		2.995063232421875	-0.0774130630493164	0		4.513091796875	0.14479798889160156	0		5.60663330078125	0.10252541351318359	0		-0.26639279174804686	5.8866513671875	0		
6.535810232162476E-4	-0.0012898730039596557	0		0.48179537963867186	-2.378743896484375	0		-1.019754150390625	-0.026030120849609376	0		-0.7224782104492188	-2.23808056640625	0		1.4295408935546876	-0.4809010620117187	0		2.990855224609375	-0.08215918731689453	0		4.47895263671875	0.1465198974609375	0		5.59649462890625	0.10399205780029297	0		-0.11363729095458984	5.90169384765625	0		
5.228949785232544E-4	-0.0012367379665374756	0		0.5135835571289062	-2.394080322265625	0		-1.0198836059570313	-0.02602668571472168	0		-0.7126043701171875	-2.24619140625	0		1.388462890625	-0.47824765014648435	0		2.99663720703125	-0.08903751373291016	0		4.482646484375	0.13374044799804688	0		5.6063447265625	0.10318833923339844	0		-0.248316162109375	5.882478515625	0		
